<svg xmlns="http://www.w3.org/2000/svg" viewBox="0 0 241.65 239.57">
	<defs>
		<style>
			#bird
			{
				fill:none;
				stroke:#333;
				stroke-miterlimit:10;
			}

			#text
			{
				fill: #333;
			}
		</style>
	</defs>

	<title>bird</title>
	<g id="bird">
		<path class="cls-1" d="M65.23,168.78s-.41-5.6,6.84-9.33c0,0,2.7-11.2,12-14.52,0,0,12.86-9.13,8.3-21.36,0,0-6.84-23.85-16-29.45,0,0-10.78-16.8-3.94-45.21L83.48,6s2.28-11.2,3.94,0c0,0,3-8.09,3.21,1.76,0,0,4.83-5.5,2.74,5.29,0,0,.4,10-1,14.38,0,0,4.36-1.21,5.39,6,0,0,2.8,2.7,2.39,5.81a7.12,7.12,0,0,1,1,6.22s3.32,2.07,2.07,7.16c0,0,2.74,3.11.28,6,0,0-1.83,4.36,2.21,3,0,0,6.64-1.56,2.28,3.53,0,0-1,1.35,3.63.93,0,0,2,.52,1.14,3.32,0,0,4.87.52-.41,2.39,0,0-.1,2,3.11,1.56a1.85,1.85,0,0,1,.83,2.8s2.28-.31,1.76,3.42A2.7,2.7,0,0,1,120,83.34s6.84,1.14,1.14,3c0,0-.1,2.39,2.8,2.7,0,0,2.18.73,1.24,3.32,0,0,2.49.62,1.24,3.63,0,0,2.39.31,1.45,3.42,0,0-.47,2.69,1.14,3,.52.1,3.53,1.56.93,3.84,0,0,1.77,3,1,4.25,0,0,1.86,1.45,1.45,2.9,0,0,3.21,1,3.11,2.8,0,0,19-.62,34.53-8.92,0,0,3.11.52,1.45,3.73,0,0-1.66,4.25,1,4.67,0,0,2.07,5.18-3.73,5.7,0,0-29.66,8.09-38,20.22,0,0-3.91.83-2.11,3.73a3.56,3.56,0,0,1-3.18,2.35s5.12,4.42-1.38,3.18c0,0,3.46,4-.14,4.56,0,0,2.35,2.63-1.38,3,0,0,.28,3.59-1,3.73,0,0,.55,1.38-.83,1.38s1.38,3.87-2.63,4.29c0,0-.55,9-8,9,0,0-2.21,4.42,4.29,5.25,0,0-6.22,6.77-2.9,9.26,0,0-11.34,3.32-18.39-5.53,0,0-9.26-10.23-5-23.37A15.62,15.62,0,0,1,91,159.31s.28-3.59-2.9-1C88.12,158.35,71.8,160.56,65.23,168.78Z"/>
	</g>

	<g id="text">
		<path d="M0,205.23H7.26q5.12,0,7.4,1.53a5.4,5.4,0,0,1,2.29,4.83,5.59,5.59,0,0,1-1.27,3.77A6.14,6.14,0,0,1,12,217.28v.18q5.85,1,5.85,6.15A6.61,6.61,0,0,1,15.48,229,9.91,9.91,0,0,1,9,230.92H0Zm3,11H7.91a8,8,0,0,0,4.55-1,3.83,3.83,0,0,0,1.39-3.35,3.39,3.39,0,0,0-1.55-3.12,9.67,9.67,0,0,0-4.92-1H3Zm0,2.53v9.62H8.35a7.64,7.64,0,0,0,4.68-1.2,4.45,4.45,0,0,0,1.57-3.77A4,4,0,0,0,13,219.89a8.6,8.6,0,0,0-4.9-1.12Z"/>
		<path d="M22.64,206.44a1.94,1.94,0,0,1,.49-1.47,1.82,1.82,0,0,1,2.44,0,1.9,1.9,0,0,1,.51,1.46,1.93,1.93,0,0,1-.51,1.47,1.79,1.79,0,0,1-2.44,0A2,2,0,0,1,22.64,206.44Zm3.16,24.49H22.89V211.66H25.8Z"/>
		<path d="M40.78,211.31a11.42,11.42,0,0,1,2.3.21l-.4,2.71a9.94,9.94,0,0,0-2.11-.26,5.14,5.14,0,0,0-4,1.9,6.92,6.92,0,0,0-1.66,4.73v10.34H32V211.66H34.4l.33,3.57h.14a8.46,8.46,0,0,1,2.58-2.9A5.82,5.82,0,0,1,40.78,211.31Z"/>
		<path d="M59.8,228.34h-.16a6.86,6.86,0,0,1-6,2.94,7.15,7.15,0,0,1-5.88-2.58q-2.1-2.58-2.1-7.35t2.11-7.4a7.1,7.1,0,0,1,5.87-2.64,7,7,0,0,1,6,2.85h.23l-.12-1.39-.07-1.35v-7.84h2.92v27.35H60.19Zm-5.84.49a5.31,5.31,0,0,0,4.33-1.63q1.34-1.63,1.34-5.25v-.62q0-4.1-1.36-5.84a5.17,5.17,0,0,0-4.35-1.75,4.47,4.47,0,0,0-3.93,2,9.92,9.92,0,0,0-1.36,5.63A9.51,9.51,0,0,0,50,227,4.58,4.58,0,0,0,54,228.83Z"/>
		<path d="M93,224.09a6.3,6.3,0,0,1-2.46,5.29,10.67,10.67,0,0,1-6.68,1.9,16.73,16.73,0,0,1-7-1.18v-2.88a18.51,18.51,0,0,0,3.45,1.05,18.13,18.13,0,0,0,3.69.39,7.45,7.45,0,0,0,4.5-1.13A3.72,3.72,0,0,0,90,224.37a4.05,4.05,0,0,0-.54-2.19,5,5,0,0,0-1.79-1.57A25.08,25.08,0,0,0,83.87,219a12.2,12.2,0,0,1-5.12-3,6.71,6.71,0,0,1-1.54-4.59,5.71,5.71,0,0,1,2.23-4.73,9.28,9.28,0,0,1,5.91-1.76,17.41,17.41,0,0,1,7,1.41l-.93,2.6a15.93,15.93,0,0,0-6.19-1.34,6,6,0,0,0-3.71,1,3.36,3.36,0,0,0-1.34,2.83,4.34,4.34,0,0,0,.49,2.19,4.63,4.63,0,0,0,1.66,1.56A20.64,20.64,0,0,0,86,216.7a14.16,14.16,0,0,1,5.56,3.09A6.08,6.08,0,0,1,93,224.09Z"/>
		<path d="M109.71,230.92l-.58-2.74H109a8.11,8.11,0,0,1-2.87,2.45,8.76,8.76,0,0,1-3.58.64A6.43,6.43,0,0,1,98,229.8a5.39,5.39,0,0,1-1.63-4.2q0-5.84,9.33-6.12l3.27-.11v-1.2a4.88,4.88,0,0,0-1-3.35,4,4,0,0,0-3.12-1.08,12.71,12.71,0,0,0-5.45,1.48l-.9-2.23a13.71,13.71,0,0,1,3.12-1.21,13.51,13.51,0,0,1,3.4-.44,7.34,7.34,0,0,1,5.11,1.53q1.66,1.53,1.66,4.9v13.15Zm-6.59-2.06a5.92,5.92,0,0,0,4.28-1.49,5.53,5.53,0,0,0,1.56-4.18v-1.74l-2.92.12a10.61,10.61,0,0,0-5,1.08,3.26,3.26,0,0,0-1.54,3,3,3,0,0,0,1,2.41A4,4,0,0,0,103.11,228.87Z"/>
		<path d="M131.06,230.92V218.46a5,5,0,0,0-1.07-3.52,4.37,4.37,0,0,0-3.36-1.16,5.54,5.54,0,0,0-4.43,1.63q-1.41,1.63-1.41,5.4v10.11h-2.92V211.66h2.37l.47,2.64h.14a6,6,0,0,1,2.51-2.21,8.17,8.17,0,0,1,3.6-.78,7.32,7.32,0,0,1,5.24,1.68q1.76,1.68,1.76,5.37v12.57Z"/>
		<path d="M147.67,231.28a8.22,8.22,0,0,1-6.48-2.58q-2.29-2.58-2.29-7.29t2.33-7.47a8.39,8.39,0,0,1,6.64-2.64,13.17,13.17,0,0,1,2.78.3,9.15,9.15,0,0,1,2.18.7l-.9,2.48a13.72,13.72,0,0,0-2.11-.64,9.42,9.42,0,0,0-2-.25q-5.87,0-5.87,7.49a8.92,8.92,0,0,0,1.43,5.45,5,5,0,0,0,4.25,1.9,13,13,0,0,0,4.94-1v2.58A10.53,10.53,0,0,1,147.67,231.28Z"/>
		<path d="M163.34,228.87a9.53,9.53,0,0,0,1.49-.11,9.67,9.67,0,0,0,1.14-.24v2.23a5.33,5.33,0,0,1-1.4.38,10.49,10.49,0,0,1-1.66.15q-5.59,0-5.59-5.89V213.93h-2.76v-1.41l2.76-1.21,1.23-4.11h1.69v4.46h5.59v2.27h-5.59v11.34a3.9,3.9,0,0,0,.83,2.67A2.88,2.88,0,0,0,163.34,228.87Z"/>
		<path d="M172.57,211.66v12.5a5,5,0,0,0,1.07,3.52,4.37,4.37,0,0,0,3.36,1.16,5.48,5.48,0,0,0,4.42-1.65q1.4-1.65,1.4-5.4V211.66h2.92v19.27h-2.41l-.42-2.58h-.16a5.82,5.82,0,0,1-2.49,2.18,8.36,8.36,0,0,1-3.63.76,7.36,7.36,0,0,1-5.26-1.67q-1.75-1.67-1.75-5.34v-12.6Z"/>
		<path d="M203.77,230.92l-.58-2.74H203a8.11,8.11,0,0,1-2.87,2.45,8.76,8.76,0,0,1-3.58.64,6.43,6.43,0,0,1-4.49-1.48,5.39,5.39,0,0,1-1.63-4.2q0-5.84,9.33-6.12l3.27-.11v-1.2a4.88,4.88,0,0,0-1-3.35,4,4,0,0,0-3.12-1.08,12.71,12.71,0,0,0-5.45,1.48l-.9-2.23a13.71,13.71,0,0,1,3.12-1.21,13.51,13.51,0,0,1,3.4-.44,7.34,7.34,0,0,1,5.11,1.53q1.66,1.53,1.66,4.9v13.15Zm-6.59-2.06a5.92,5.92,0,0,0,4.28-1.49,5.53,5.53,0,0,0,1.56-4.18v-1.74l-2.92.12a10.61,10.61,0,0,0-5,1.08,3.26,3.26,0,0,0-1.54,3,3,3,0,0,0,1,2.41A4,4,0,0,0,197.17,228.87Z"/>
		<path d="M220.73,211.31a11.42,11.42,0,0,1,2.3.21l-.4,2.71a9.94,9.94,0,0,0-2.11-.26,5.13,5.13,0,0,0-4,1.9,6.92,6.92,0,0,0-1.66,4.73v10.34h-2.92V211.66h2.41l.33,3.57h.14a8.47,8.47,0,0,1,2.58-2.9A5.82,5.82,0,0,1,220.73,211.31Z"/>
		<path d="M223.58,211.66h3.13l4.22,11a41.79,41.79,0,0,1,1.72,5.43h.14q.23-.9,1-3.07t4.77-13.35h3.13l-8.28,21.94a10.94,10.94,0,0,1-2.87,4.61,6.11,6.11,0,0,1-4,1.36,11.74,11.74,0,0,1-2.64-.3v-2.34a10.17,10.17,0,0,0,2.16.21q3,0,4.29-3.37l1.07-2.74Z"/>
	</g>
</svg>