<svg xmlns="http://www.w3.org/2000/svg" viewBox="0 0 241.74 239.57">
	<defs>
	<style>
		#island
		{
			fill:none;
			stroke:#333;
			stroke-miterlimit:10;
		}

		#text
		{
			fill: #333;
		}
	</style>
	</defs>

	<title>island</title>

	<g id="text">
		<path d="M15.47,201.17A8.4,8.4,0,0,0,8.78,204a11.38,11.38,0,0,0-2.45,7.73q0,5,2.36,7.8a8.4,8.4,0,0,0,6.74,2.75,23,23,0,0,0,6.13-1v2.62a18.89,18.89,0,0,1-6.59,1q-5.68,0-8.76-3.45t-3.08-9.79a15.45,15.45,0,0,1,1.49-7,10.66,10.66,0,0,1,4.29-4.61,13,13,0,0,1,6.6-1.62A15.93,15.93,0,0,1,22.57,200l-1.27,2.57A13.62,13.62,0,0,0,15.47,201.17Z"/>
		<path d="M39.92,224.57V212.11a5,5,0,0,0-1.07-3.52,4.37,4.37,0,0,0-3.36-1.16,5.5,5.5,0,0,0-4.44,1.65q-1.4,1.65-1.4,5.41v10.07H26.74V197.22h2.92v8.28a18,18,0,0,1-.14,2.48h.18a6,6,0,0,1,2.45-2.19,8,8,0,0,1,3.63-.8,7.43,7.43,0,0,1,5.3,1.68q1.77,1.68,1.77,5.33v12.57Z"/>
		<path d="M60.68,224.57l-.58-2.74H60a8.11,8.11,0,0,1-2.87,2.45,8.76,8.76,0,0,1-3.58.64A6.43,6.43,0,0,1,49,223.44a5.39,5.39,0,0,1-1.63-4.2q0-5.84,9.33-6.12L60,213v-1.2a4.88,4.88,0,0,0-1-3.35,4,4,0,0,0-3.12-1.08,12.71,12.71,0,0,0-5.45,1.48l-.9-2.23a13.71,13.71,0,0,1,3.12-1.21,13.51,13.51,0,0,1,3.4-.44,7.34,7.34,0,0,1,5.11,1.53q1.66,1.53,1.66,4.9v13.15Zm-6.59-2.06A5.92,5.92,0,0,0,58.37,221a5.53,5.53,0,0,0,1.56-4.18V215.1l-2.92.12a10.61,10.61,0,0,0-5,1.08,3.26,3.26,0,0,0-1.54,3,3,3,0,0,0,1,2.41A4,4,0,0,0,54.09,222.51Z"/>
		<path d="M82,224.57V212.11A5,5,0,0,0,81,208.59a4.37,4.37,0,0,0-3.36-1.16,5.54,5.54,0,0,0-4.43,1.63q-1.41,1.63-1.41,5.4v10.11H68.85V205.3h2.37l.47,2.64h.14a6,6,0,0,1,2.51-2.21A8.17,8.17,0,0,1,78,205a7.32,7.32,0,0,1,5.24,1.68Q85,208.31,85,212v12.57Z"/>
		<path d="M97.17,222.51a9.53,9.53,0,0,0,1.49-.11,9.67,9.67,0,0,0,1.14-.24v2.23a5.33,5.33,0,0,1-1.4.38,10.49,10.49,0,0,1-1.66.15q-5.59,0-5.59-5.89V207.57H88.4v-1.41L91.16,205l1.23-4.11h1.69v4.46h5.59v2.27H94.08v11.34a3.9,3.9,0,0,0,.83,2.67A2.88,2.88,0,0,0,97.17,222.51Z"/>
		<path d="M112.45,205a11.42,11.42,0,0,1,2.3.21l-.4,2.71a9.94,9.94,0,0,0-2.11-.26,5.13,5.13,0,0,0-4,1.9,6.92,6.92,0,0,0-1.66,4.73v10.34h-2.92V205.3h2.41l.33,3.57h.14a8.47,8.47,0,0,1,2.58-2.9A5.82,5.82,0,0,1,112.45,205Z"/>
		<path d="M115.29,205.3h3.13l4.22,11a41.79,41.79,0,0,1,1.72,5.43h.14q.23-.9,1-3.07t4.77-13.35h3.13l-8.28,21.94a10.94,10.94,0,0,1-2.87,4.61,6.11,6.11,0,0,1-4,1.36,11.74,11.74,0,0,1-2.64-.3v-2.34a10.17,10.17,0,0,0,2.16.21q3,0,4.29-3.37l1.07-2.74Z"/>
		<path d="M146.29,224.57v-25.7h3v25.7Z"/>
		<path d="M168.31,219.31a4.83,4.83,0,0,1-2,4.15,9.42,9.42,0,0,1-5.62,1.46,12.23,12.23,0,0,1-6-1.21V221a14.45,14.45,0,0,0,3,1.11,12.44,12.44,0,0,0,3.07.4,7,7,0,0,0,3.52-.73,2.51,2.51,0,0,0,.25-4.15,15.35,15.35,0,0,0-3.81-1.89,20.64,20.64,0,0,1-3.82-1.75,5.22,5.22,0,0,1-1.69-1.7,4.42,4.42,0,0,1-.55-2.27,4.32,4.32,0,0,1,1.92-3.72,8.93,8.93,0,0,1,5.26-1.36,15.38,15.38,0,0,1,6.08,1.27l-1,2.37a14,14,0,0,0-5.26-1.2,6,6,0,0,0-3.13.65,2,2,0,0,0-1.05,1.79,2.18,2.18,0,0,0,.4,1.32,3.9,3.9,0,0,0,1.27,1,28.48,28.48,0,0,0,3.38,1.42,12.61,12.61,0,0,1,4.63,2.51A4.43,4.43,0,0,1,168.31,219.31Z"/>
		<path d="M176,224.57h-2.92V197.22H176Z"/>
		<path d="M194,224.57l-.58-2.74h-.14a8.11,8.11,0,0,1-2.87,2.45,8.76,8.76,0,0,1-3.58.64,6.43,6.43,0,0,1-4.49-1.48,5.39,5.39,0,0,1-1.63-4.2q0-5.84,9.33-6.12l3.27-.11v-1.2a4.88,4.88,0,0,0-1-3.35,4,4,0,0,0-3.12-1.08,12.71,12.71,0,0,0-5.45,1.48l-.9-2.23a13.71,13.71,0,0,1,3.12-1.21,13.51,13.51,0,0,1,3.4-.44,7.34,7.34,0,0,1,5.11,1.53q1.66,1.53,1.66,4.9v13.15Zm-6.59-2.06A5.92,5.92,0,0,0,191.7,221a5.53,5.53,0,0,0,1.56-4.18V215.1l-2.92.12a10.61,10.61,0,0,0-5,1.08,3.26,3.26,0,0,0-1.54,3,3,3,0,0,0,1,2.41A4,4,0,0,0,187.42,222.51Z"/>
		<path d="M215.37,224.57V212.11a5,5,0,0,0-1.07-3.52,4.37,4.37,0,0,0-3.36-1.16,5.54,5.54,0,0,0-4.43,1.63q-1.41,1.63-1.41,5.4v10.11h-2.92V205.3h2.37l.47,2.64h.14a6,6,0,0,1,2.51-2.21,8.17,8.17,0,0,1,3.6-.78,7.32,7.32,0,0,1,5.24,1.68q1.76,1.68,1.76,5.37v12.57Z"/>
		<path d="M237.39,222h-.16a6.86,6.86,0,0,1-6,2.94,7.15,7.15,0,0,1-5.88-2.58q-2.1-2.58-2.1-7.35t2.11-7.4a7.1,7.1,0,0,1,5.87-2.64,7,7,0,0,1,6,2.85h.23l-.12-1.39-.07-1.35v-7.84h2.92v27.35h-2.37Zm-5.84.49a5.31,5.31,0,0,0,4.33-1.63q1.34-1.63,1.34-5.25V215q0-4.1-1.36-5.84a5.17,5.17,0,0,0-4.35-1.75,4.47,4.47,0,0,0-3.93,2,9.92,9.92,0,0,0-1.36,5.63,9.51,9.51,0,0,0,1.35,5.57A4.58,4.58,0,0,0,231.56,222.48Z"/>
	</g>

	<g id="island">
		<path class="cls-1" d="M41.87,115.21c.95-.48,3.16-3,4.06-3.43a14.22,14.22,0,0,1,6.21-1.54c4.63-.12,9.28.22,13.94.38,13.41.45,26.79,1.9,40.09,3.67,1.83,6.68,3.87,13.38,7.24,19.43,1.12,2,2.49,4,4.56,5,1.08-1.63.52-3.8-.15-5.64a66.36,66.36,0,0,0-7.37-14.37,5.76,5.76,0,0,1-1.22-2.67c-.61-8,28.14-4.84,32.47-4.12,4.67.77,8,.84,12.49-.6a57.15,57.15,0,0,1,9-1.88c8.36-1.25,19.25-2,27.24,1.33,1.42.58,2.76,1.35,4.13,2.06a62.18,62.18,0,0,0,11.28,4.54,33.71,33.71,0,0,0-9.21-6.48,27.44,27.44,0,0,1-4.32-2.24c-3.23-2.32-4.95-8.2-2.66-11.73,4.79-7.39,14.42-3.38,21-6.81,2.71-1.41,5.15-4,8.19-3.71-.65-1.72-1.15-4,.25-5.16a4.61,4.61,0,0,1,1.91-.81l6.63-1.69c4.61-1.17,9.3-2.36,14.06-2.23a283.39,283.39,0,0,0-34-4.47,74.88,74.88,0,0,1-10.92-1.23A89.06,89.06,0,0,1,187.4,68a128.45,128.45,0,0,0-18.78-4.81c-9.07-1.6-16.84-7.18-26.31-6.51l8.07,4.75a250.5,250.5,0,0,0-26.72,2.52c-1.09.16-2.36.46-2.8,1.48a2.64,2.64,0,0,0,.09,1.91c1.3,3.55,5.41,5.34,7.1,8.72a2.17,2.17,0,0,1,.25,1.7c-.45,1.17-2.14,1-3.34.66l-14.08-4.3c-2.31-.71-4.79-1.41-7.09-.69-1.18.37-2.23,1.1-3.42,1.42a10.61,10.61,0,0,1-3.46.15L85.45,74.2c-2.1-.14-4.34-.24-6.15.81-1.31.77-2.24,2.05-3.48,2.93-2.56,1.79-6,1.54-9.08,1.21L30,75.28c.25,1.85,2.45,2.59,4.23,3.18s3.81,2.15,3.11,3.89C31.38,79.21,24.88,76,18.25,77.1a37.4,37.4,0,0,0,11.58,9.31,15.68,15.68,0,0,0,5.47,14.4c-1.88.72-3.9,1.57-4.86,3.33s.1,4.6,2.1,4.48A235.58,235.58,0,0,1,3.11,124.88c1.57,1.28,3.89.71,5.8,0,10.77-3.75,21.36-8.67,32.73-9.63A.67.67,0,0,0,41.87,115.21Z"/>
		<path class="cls-1" d="M177.87,102l.35-7.17s-.59-3.58-1.88,0l-.59,7.17Z"/>
		<polygon class="cls-1" points="172.05 102.03 172.05 100.79 171.53 99.62 168.82 99.62 168.18 101.44 168.96 102.35 172.05 102.03"/>
		<path class="cls-1" d="M109.24,83.4s16.45-1.65,1.88-6.11l-5.64-2.59s-4,2.59-2.35,4.35l-.4,3.41s2.51,3.06,1.81,3.76S109,86.69,109.24,83.4Z"/>
		<path class="cls-1" d="M163.61,64.13a2.84,2.84,0,0,0,2.66,1.25C168.31,65.38,166.12,63.5,163.61,64.13Z"/>
		<path class="cls-1" d="M131.8,72.27s6,1.72,9.09,0A12,12,0,0,0,131.8,72.27Z"/>
	</g>
</svg>