<svg xmlns="http://www.w3.org/2000/svg" viewBox="0 0 241.65 240.07">
	<defs>
		<style>
			#lighthouse
			{
				fill:none;
				stroke:#333;
				stroke-miterlimit:10;
				stroke-width:2px;
			}

			#text
			{
				fill: #333;
			}
		</style>
	</defs>

	<title>lighthouse</title>

	<g id="text">
		<path d="M30.58,231.42v-25.7h3v23H44.9v2.71Z"/>
		<path d="M48.58,206.94a1.94,1.94,0,0,1,.49-1.47,1.82,1.82,0,0,1,2.44,0,1.9,1.9,0,0,1,.51,1.46,1.93,1.93,0,0,1-.51,1.47,1.79,1.79,0,0,1-2.44,0A2,2,0,0,1,48.58,206.94Zm3.16,24.49H48.82V212.16h2.92Z"/>
		<path d="M73.7,212.16V214l-3.57.42a6.27,6.27,0,0,1,1.27,3.85,5.7,5.7,0,0,1-1.93,4.52,7.8,7.8,0,0,1-5.31,1.69,8.84,8.84,0,0,1-1.62-.14,2.87,2.87,0,0,0-1.86,2.48,1.26,1.26,0,0,0,.65,1.17,4.75,4.75,0,0,0,2.23.38H67a7.64,7.64,0,0,1,4.81,1.32,4.58,4.58,0,0,1,1.68,3.83,5.47,5.47,0,0,1-2.57,4.88q-2.57,1.68-7.49,1.68a10.23,10.23,0,0,1-5.83-1.41,4.54,4.54,0,0,1-2-4,4.46,4.46,0,0,1,1.13-3,5.73,5.73,0,0,1,3.16-1.74,3.05,3.05,0,0,1-1.24-1,2.74,2.74,0,0,1-.5-1.63,3.1,3.1,0,0,1,.56-1.85,5.91,5.91,0,0,1,1.78-1.53A5.2,5.2,0,0,1,58,221.77,6.15,6.15,0,0,1,57,218.4a6.23,6.23,0,0,1,1.9-4.88,7.75,7.75,0,0,1,5.38-1.71,9.78,9.78,0,0,1,2.72.35Zm-15.36,22.5A2.61,2.61,0,0,0,59.65,237a7.28,7.28,0,0,0,3.78.81,10.55,10.55,0,0,0,5.44-1.1,3.36,3.36,0,0,0,1.77-3,2.36,2.36,0,0,0-1-2.17A7.51,7.51,0,0,0,66,231h-3.5a4.61,4.61,0,0,0-3.09.95A3.39,3.39,0,0,0,58.33,234.66Zm1.58-16.33a3.92,3.92,0,0,0,1.14,3.06,4.56,4.56,0,0,0,3.18,1q4.27,0,4.27-4.15,0-4.34-4.32-4.34A4.28,4.28,0,0,0,61,215,4.46,4.46,0,0,0,59.92,218.33Z"/>
		<path d="M90.84,231.42V219a5,5,0,0,0-1.07-3.52,4.37,4.37,0,0,0-3.36-1.16A5.5,5.5,0,0,0,82,215.94q-1.4,1.65-1.4,5.41v10.07H77.65V204.07h2.92v8.28a18,18,0,0,1-.14,2.48h.18a6,6,0,0,1,2.45-2.19,8,8,0,0,1,3.63-.8,7.43,7.43,0,0,1,5.3,1.68q1.77,1.68,1.77,5.33v12.57Z"/>
		<path d="M106,229.37a9.53,9.53,0,0,0,1.49-.11,9.67,9.67,0,0,0,1.14-.24v2.23a5.33,5.33,0,0,1-1.4.38,10.49,10.49,0,0,1-1.66.15q-5.59,0-5.59-5.89V214.43H97.2V213l2.76-1.21,1.23-4.11h1.69v4.46h5.59v2.27h-5.59v11.34a3.9,3.9,0,0,0,.83,2.67A2.88,2.88,0,0,0,106,229.37Z"/>
		<path d="M125.64,231.42V219a5,5,0,0,0-1.07-3.52,4.37,4.37,0,0,0-3.36-1.16,5.5,5.5,0,0,0-4.44,1.65q-1.4,1.65-1.4,5.41v10.07h-2.92V204.07h2.92v8.28a18,18,0,0,1-.14,2.48h.18a6,6,0,0,1,2.45-2.19,8,8,0,0,1,3.63-.8,7.43,7.43,0,0,1,5.3,1.68q1.77,1.68,1.77,5.33v12.57Z"/>
		<path d="M151.18,221.77q0,4.71-2.37,7.36a8.36,8.36,0,0,1-6.56,2.65,8.68,8.68,0,0,1-4.59-1.21,8,8,0,0,1-3.09-3.48,12.13,12.13,0,0,1-1.09-5.31q0-4.71,2.36-7.34a8.33,8.33,0,0,1,6.54-2.63,8.15,8.15,0,0,1,6.42,2.69A10.58,10.58,0,0,1,151.18,221.77Zm-14.68,0A9.14,9.14,0,0,0,138,227.4a5.86,5.86,0,0,0,8.69,0,9.1,9.1,0,0,0,1.49-5.63,9,9,0,0,0-1.49-5.58,5.22,5.22,0,0,0-4.39-1.91,5.14,5.14,0,0,0-4.32,1.88A9.05,9.05,0,0,0,136.5,221.77Z"/>
		<path d="M159,212.16v12.5a5,5,0,0,0,1.07,3.52,4.37,4.37,0,0,0,3.36,1.16,5.48,5.48,0,0,0,4.42-1.65q1.4-1.65,1.4-5.4V212.16h2.92v19.27H169.8l-.42-2.58h-.16a5.82,5.82,0,0,1-2.49,2.18,8.36,8.36,0,0,1-3.63.76,7.36,7.36,0,0,1-5.26-1.67q-1.75-1.67-1.75-5.34v-12.6Z"/>
		<path d="M190.82,226.17a4.83,4.83,0,0,1-2,4.15,9.42,9.42,0,0,1-5.62,1.46,12.23,12.23,0,0,1-6-1.21v-2.71a14.45,14.45,0,0,0,3,1.11,12.44,12.44,0,0,0,3.07.4,7,7,0,0,0,3.52-.73,2.51,2.51,0,0,0,.25-4.15,15.35,15.35,0,0,0-3.81-1.89,20.64,20.64,0,0,1-3.82-1.75,5.22,5.22,0,0,1-1.69-1.7,4.42,4.42,0,0,1-.55-2.27,4.32,4.32,0,0,1,1.92-3.72,8.93,8.93,0,0,1,5.26-1.36,15.38,15.38,0,0,1,6.08,1.27l-1,2.37a14,14,0,0,0-5.26-1.2,6,6,0,0,0-3.13.65,2,2,0,0,0-1.05,1.79,2.18,2.18,0,0,0,.4,1.32,3.9,3.9,0,0,0,1.27,1,28.48,28.48,0,0,0,3.38,1.42,12.61,12.61,0,0,1,4.63,2.51A4.43,4.43,0,0,1,190.82,226.17Z"/>
		<path d="M203.7,231.78a8.85,8.85,0,0,1-6.74-2.6,10.07,10.07,0,0,1-2.47-7.22,11.17,11.17,0,0,1,2.29-7.4,7.62,7.62,0,0,1,6.16-2.74,7.27,7.27,0,0,1,5.73,2.38,9.13,9.13,0,0,1,2.11,6.28v1.85H197.52a7.64,7.64,0,0,0,1.71,5.15,5.93,5.93,0,0,0,4.58,1.76,15.52,15.52,0,0,0,6.15-1.3v2.6a15.44,15.44,0,0,1-2.93,1A16.45,16.45,0,0,1,203.7,231.78Zm-.79-17.53a4.77,4.77,0,0,0-3.7,1.51,7,7,0,0,0-1.63,4.18h10.07a6.42,6.42,0,0,0-1.23-4.23A4.33,4.33,0,0,0,202.91,214.25Z"/>
	</g>

	<g id="lighthouse">
		<path class="cls-1" d="M92.11,67.21V56.53a85.38,85.38,0,0,1,10.68-2.43,132.21,132.21,0,0,1,14.42-1.66s6.34-1.23,30.4,2.32v11.3"/>
		<path class="cls-1" d="M88.52,187.88S103.85,200,151.19,185L145.5,77.17l3.92-8.54s1.4-5-29.56-5c0,0-21.7.36-27.75,3.56l1.78,10Z"/>
		<line class="cls-1" x1="102.78" y1="118.11" x2="102.78" y2="130.92"/>
		<line class="cls-1" x1="135.53" y1="154.95" x2="135.53" y2="169.37"/>
		<path class="cls-1" d="M93.89,77.17s25.27-10.32,51.61,0"/>
		<path class="cls-1" d="M147.6,72.59s-21-11-53.72,0"/>
		<path class="cls-1" d="M135.53,53.18v-25c6.71-2,4.56-3.15,0-3.83-2.07-.31-4.64-.53-7.11-.67-4.55-.27-8.73-.3-8.73-.3-26.61.53-15.57,4.27-15.57,4.27V64.53"/>
		<path class="cls-1" d="M104.92,24.43s3.11-11,14.77-12.3c0,0,10.41-2.59,15.84,12.19"/>
		<path class="cls-1" d="M119.69,12.12s7.15,2.21,8.73,11.52"/>
		<line class="cls-1" x1="119.69" y1="12.12" x2="119.69" y2="7.58"/>
		<circle class="cls-1" cx="119.69" cy="4.85" r="3.35" transform="translate(31.63 86.06) rotate(-45)"/>
		<line class="cls-1" x1="98.23" y1="65.43" x2="98.23" y2="54.97"/>
		<path class="cls-1" d="M111.56,64V53l.3-29.71c-1.74-5,4.58-9.32,7-10.73.53-.32.87-.49.87-.49V23.34"/>
		<polyline class="cls-1" points="118.53 52.3 118.53 63.65 118.53 23.34"/>
		<polyline class="cls-1" points="124.45 52.3 124.06 63.65 125.08 23.48"/>
		<line class="cls-1" x1="142.58" y1="65.18" x2="142.58" y2="54.05"/>
		<line class="cls-1" x1="135.53" y1="64.23" x2="135.53" y2="53.32"/>
		<polyline class="cls-1" points="130.02 63.86 130.02 63.86 130.02 52.65"/>
		<path class="cls-1" d="M105.84,46c3.58-1,17-4.25,28.08-.35a.51.51,0,0,1-.06,1c-4.34.86-16.44,2.76-28-.12A.27.27,0,0,1,105.84,46Z"/>
		<path class="cls-1" d="M104.52,37.48c3.71-1,17.56-4.25,29-.35a.51.51,0,0,1-.07,1c-4.49.86-17,2.76-29-.12"/>
		<path class="cls-1" d="M105,28c3.71-1,17.56-4.25,29-.35a.51.51,0,0,1-.07,1c-4.49.86-17,2.76-29-.12"/>
		<line class="cls-1" x1="130.02" y1="64.53" x2="131.08" y2="23.82"/>
	</g>
</svg>