<svg xmlns="http://www.w3.org/2000/svg" viewBox="0 0 276.69 133.56">
	<defs>
		<style>
			.cls-1,.cls-2
			{
				stroke:#98866E;
				stroke-miterlimit:10;
				stroke-width:4px;
			}
			.cls-2
			{
				fill:none;
			}

			#Chantry_Island
			{
				fill: #98866E;
			}

			#Layer_3
			{
				fill: #98866E;
			}
		</style>
	</defs>
	<title>logo</title>
	<g id="Layer_3" data-name="Layer 3">
		<path d="M12.63,25.41A8.6,8.6,0,0,0,5.78,28.3q-2.51,2.89-2.51,7.9t2.42,8A8.6,8.6,0,0,0,12.59,47a23.54,23.54,0,0,0,6.28-1v2.68a19.32,19.32,0,0,1-6.74,1q-5.81,0-9-3.52T0,36.17A15.81,15.81,0,0,1,1.52,29a10.91,10.91,0,0,1,4.39-4.71,13.28,13.28,0,0,1,6.75-1.65,16.3,16.3,0,0,1,7.23,1.51L18.6,26.81A13.94,13.94,0,0,0,12.63,25.41Z"/>
		<path d="M37.64,49.35V36.6a5.15,5.15,0,0,0-1.1-3.6,4.47,4.47,0,0,0-3.43-1.19,5.63,5.63,0,0,0-4.54,1.69Q27.14,35.2,27.14,39v10.3h-3v-28h3v8.47A18.43,18.43,0,0,1,27,32.37h.18a6.09,6.09,0,0,1,2.51-2.24,8.16,8.16,0,0,1,3.71-.82A7.6,7.6,0,0,1,38.82,31q1.81,1.72,1.81,5.46V49.35Z"/>
		<path d="M58.88,49.35l-.59-2.81h-.14a8.29,8.29,0,0,1-2.94,2.51,9,9,0,0,1-3.66.66,6.58,6.58,0,0,1-4.6-1.51,5.51,5.51,0,0,1-1.66-4.3q0-6,9.55-6.26l3.34-.11V36.31a5,5,0,0,0-1-3.43A4.11,4.11,0,0,0,54,31.78a13,13,0,0,0-5.58,1.51L47.5,31a14,14,0,0,1,3.19-1.24,13.83,13.83,0,0,1,3.48-.45q3.52,0,5.22,1.56t1.7,5V49.35Zm-6.74-2.1a6.06,6.06,0,0,0,4.38-1.53,5.66,5.66,0,0,0,1.59-4.28V39.66l-3,.13A10.86,10.86,0,0,0,50,40.89a3.34,3.34,0,0,0-1.57,3,3.08,3.08,0,0,0,1,2.46A4.07,4.07,0,0,0,52.14,47.24Z"/>
		<path d="M80.73,49.35V36.6a5.15,5.15,0,0,0-1.1-3.6,4.47,4.47,0,0,0-3.43-1.19,5.67,5.67,0,0,0-4.53,1.67Q70.23,35.16,70.23,39V49.35h-3V29.64h2.43l.49,2.7h.14a6.09,6.09,0,0,1,2.57-2.26,8.36,8.36,0,0,1,3.69-.8A7.49,7.49,0,0,1,81.92,31q1.8,1.72,1.8,5.49V49.35Z"/>
		<path d="M96.21,47.24a9.75,9.75,0,0,0,1.53-.12,9.87,9.87,0,0,0,1.17-.24v2.28a5.46,5.46,0,0,1-1.43.39,10.78,10.78,0,0,1-1.7.15q-5.72,0-5.72-6V32H87.24V30.52l2.82-1.24,1.26-4.21H93v4.57h5.72V32H93v11.6a4,4,0,0,0,.85,2.73A2.94,2.94,0,0,0,96.21,47.24Z"/>
		<path d="M111.84,29.28a11.69,11.69,0,0,1,2.36.22l-.41,2.77a10.19,10.19,0,0,0-2.16-.27,5.25,5.25,0,0,0-4.09,1.94,7.08,7.08,0,0,0-1.7,4.84V49.35h-3V29.64h2.46l.34,3.65h.14a8.67,8.67,0,0,1,2.64-3A6,6,0,0,1,111.84,29.28Z"/><path d="M114.75,29.64H118l4.32,11.24A42.86,42.86,0,0,1,124,46.43h.14q.23-.92,1-3.14T130,29.64h3.2l-8.47,22.44a11.2,11.2,0,0,1-2.94,4.72,6.25,6.25,0,0,1-4.13,1.39,12,12,0,0,1-2.7-.31V55.5a10.41,10.41,0,0,0,2.21.22q3.08,0,4.39-3.45l1.1-2.81Z"/>
	</g>

	<g id="Chantry_Island" data-name="Chantry Island">
		<path d="M180.66,49.33V23h3.06V49.33Z"/>
		<path d="M203.19,44a4.94,4.94,0,0,1-2,4.24,9.64,9.64,0,0,1-5.75,1.49,12.51,12.51,0,0,1-6.11-1.24V45.68a14.8,14.8,0,0,0,3,1.13,12.72,12.72,0,0,0,3.14.41,7.11,7.11,0,0,0,3.6-.75,2.57,2.57,0,0,0,.26-4.24,15.72,15.72,0,0,0-3.89-1.93,21.08,21.08,0,0,1-3.91-1.79,5.34,5.34,0,0,1-1.73-1.74,4.53,4.53,0,0,1-.57-2.32,4.42,4.42,0,0,1,2-3.8,9.13,9.13,0,0,1,5.38-1.39,15.73,15.73,0,0,1,6.22,1.29L201.71,33a14.29,14.29,0,0,0-5.38-1.22,6.19,6.19,0,0,0-3.2.67,2.06,2.06,0,0,0-1.08,1.83,2.23,2.23,0,0,0,.4,1.35,4,4,0,0,0,1.3,1.06,29.07,29.07,0,0,0,3.45,1.46A12.91,12.91,0,0,1,202,40.7,4.54,4.54,0,0,1,203.19,44Z"/>
		<path d="M211,49.33h-3v-28h3Z"/>
		<path d="M229.48,49.33l-.59-2.81h-.14A8.29,8.29,0,0,1,225.8,49a9,9,0,0,1-3.66.66,6.58,6.58,0,0,1-4.59-1.51,5.51,5.51,0,0,1-1.66-4.3q0-6,9.55-6.26l3.34-.11V36.29a5,5,0,0,0-1-3.43,4.11,4.11,0,0,0-3.19-1.11A13,13,0,0,0,219,33.27L218.1,31a14,14,0,0,1,3.19-1.24,13.83,13.83,0,0,1,3.48-.45q3.53,0,5.22,1.56t1.7,5V49.33Zm-6.74-2.1a6.06,6.06,0,0,0,4.38-1.53,5.66,5.66,0,0,0,1.59-4.28V39.64l-3,.13a10.86,10.86,0,0,0-5.13,1.11,3.34,3.34,0,0,0-1.57,3,3.08,3.08,0,0,0,1,2.46A4.07,4.07,0,0,0,222.74,47.23Z"/>
		<path d="M251.33,49.33V36.58a5.15,5.15,0,0,0-1.1-3.6,4.47,4.47,0,0,0-3.43-1.19,5.67,5.67,0,0,0-4.53,1.67q-1.44,1.67-1.44,5.52V49.33h-3V29.62h2.43l.49,2.7h.14a6.09,6.09,0,0,1,2.57-2.26,8.36,8.36,0,0,1,3.69-.8A7.49,7.49,0,0,1,252.52,31q1.8,1.72,1.8,5.49V49.33Z"/>
		<path d="M273.86,46.69h-.16a7,7,0,0,1-6.19,3,7.32,7.32,0,0,1-6-2.64q-2.15-2.64-2.15-7.52T261.51,32a7.26,7.26,0,0,1,6-2.7,7.17,7.17,0,0,1,6.15,2.91h.23l-.13-1.42-.07-1.38v-8h3v28h-2.43Zm-6,.5a5.44,5.44,0,0,0,4.43-1.66q1.37-1.66,1.38-5.37v-.63q0-4.19-1.39-6a5.29,5.29,0,0,0-4.45-1.79,4.57,4.57,0,0,0-4,2,10.15,10.15,0,0,0-1.39,5.76,9.72,9.72,0,0,0,1.38,5.7A4.69,4.69,0,0,0,267.89,47.19Z"/></g><g id="logo_image_Image" data-name="logo_image Image">
		<polygon class="cls-1" points="103.27 100.92 108.25 111.22 112.69 106.21 103.27 100.92"/>
		<polygon class="cls-1" points="205.04 100.92 200.06 111.22 195.63 106.21 205.04 100.92"/>
		<path class="cls-2" d="M138.16,91.21l1.93-53.36a1.36,1.36,0,0,0-.28-.87h0a1.36,1.36,0,0,1,1.08-2.18h13"/>
		<path class="cls-2" d="M166.38,91.21l-1.93-53.36a1.36,1.36,0,0,1,.28-.87h0a1.36,1.36,0,0,0-1.08-2.18h-13"/>
		<path class="cls-2" d="M142.12,33.34l-.91-3.4a1.35,1.35,0,0,1,1-1.68l2.73-.6c2.58-.56,5.61-1.18,6.63-1.28h1.5c1.58.24,6.79,1.34,9.32,1.88a1.36,1.36,0,0,1,1,1.68l-.91,3.38"/><path class="cls-2" d="M145,27.66v-12a1.36,1.36,0,0,1,1.36-1.36H158.9a1.36,1.36,0,0,1,1.36,1.36v12"/>
		<path class="cls-2" d="M144.16,13.06H161.1a1.36,1.36,0,0,0,1-2.33l-8.47-8.34a1.36,1.36,0,0,0-1.91,0l-8.47,8.34A1.36,1.36,0,0,0,144.16,13.06Z"/>
		<path class="cls-2" d="M139.24,61.35c-38.1,4.45-64.22,32.86-71,70.21H97.92a58.15,58.15,0,0,1,112,0h29.68c-7-38.4-34.71-67.57-74.32-70.7"/>
	</g>
</svg>