<svg id="YouTube_Icon" data-name="YouTube Icon" xmlns="http://www.w3.org/2000/svg" viewBox="0 0 1021.45 718.42">
	<defs>
		<style>.cls-1{fill:#666;} .cls-1:hover{fill:#e52d27;}</style>
	</defs>
	<title>youtube</title>

	<g id="Lozenge"><path class="cls-1" d="M1011.25,155s-10-70.39-40.61-101.39C931.8,12.92,888.26,12.71,868.3,10.33,725.36,0,510.95,0,510.95,0h-.44S296.09,0,153.15,10.33c-20,2.38-63.49,2.58-102.35,43.27C20.18,84.6,10.22,155,10.22,155S0,237.64,0,320.3V397.8c0,82.66,10.22,165.32,10.22,165.32s10,70.39,40.59,101.39c38.86,40.68,89.9,39.4,112.63,43.66,81.72,7.84,347.29,10.26,347.29,10.26s214.63-.32,357.57-10.66c20-2.38,63.5-2.58,102.35-43.27,30.62-31,40.61-101.39,40.61-101.39s10.2-82.66,10.2-165.32V320.3C1021.45,237.64,1011.25,155,1011.25,155Zm-606,336.72,0-287,276,144Z"/></g>
</svg>